<?xml version="1.0" encoding="UTF-8"?>
<!DOCTYPE svg PUBLIC "-//W3C//DTD SVG 1.1//EN" "http://www.w3.org/Graphics/SVG/1.1/DTD/svg11.dtd">
<svg xmlns="http://www.w3.org/2000/svg" version="1.1" width="175px" height="48px" style="shape-rendering:geometricPrecision; text-rendering:geometricPrecision; image-rendering:optimizeQuality; fill-rule:evenodd; clip-rule:evenodd" xmlns:xlink="http://www.w3.org/1999/xlink">
<g><path style="opacity:1" fill="#fbfbfc" d="M -0.5,-0.5 C 57.8333,-0.5 116.167,-0.5 174.5,-0.5C 174.5,15.5 174.5,31.5 174.5,47.5C 116.167,47.5 57.8333,47.5 -0.5,47.5C -0.5,31.5 -0.5,15.5 -0.5,-0.5 Z"/></g>
<g><path style="opacity:1" fill="#283788" d="M 72.5,5.5 C 72.0545,14.9402 72.5545,24.2736 74,33.5C 77.6591,37.1151 81.6591,37.4485 86,34.5C 87.0086,32.9751 87.5086,31.3084 87.5,29.5C 88.4924,21.6841 88.8257,13.6841 88.5,5.5C 90.8333,5.5 93.1667,5.5 95.5,5.5C 95.6665,14.8393 95.4998,24.1726 95,33.5C 93.9043,38.2604 91.0709,41.4271 86.5,43C 78.8189,45.0007 72.3189,43.1673 67,37.5C 65.872,35.6547 65.372,33.6547 65.5,31.5C 65.5,22.8333 65.5,14.1667 65.5,5.5C 67.8333,5.5 70.1667,5.5 72.5,5.5 Z"/></g>
<g><path style="opacity:1" fill="#2c3a8a" d="M 103.5,4.5 C 110.508,4.33371 117.508,4.50038 124.5,5C 131.974,8.12042 134.474,13.6204 132,21.5C 130.878,23.6238 129.378,25.4571 127.5,27C 122.264,28.339 116.93,28.839 111.5,28.5C 111.5,33.1667 111.5,37.8333 111.5,42.5C 108.833,42.5 106.167,42.5 103.5,42.5C 103.5,29.8333 103.5,17.1667 103.5,4.5 Z"/></g>
<g><path style="opacity:1" fill="#293889" d="M 161.5,5.5 C 168.142,7.38209 170.308,11.7154 168,18.5C 166.833,19.6667 165.667,20.8333 164.5,22C 170.484,25.3634 171.984,30.1967 169,36.5C 167.143,39.1998 164.643,40.8665 161.5,41.5C 154.167,41.5 146.833,41.5 139.5,41.5C 139.5,29.5 139.5,17.5 139.5,5.5C 146.833,5.5 154.167,5.5 161.5,5.5 Z"/></g>
<g><path style="opacity:1" fill="#303c8c" d="M 32.5,7.5 C 32.5,8.16667 32.1667,8.5 31.5,8.5C 25.9773,8.17763 21.4773,10.1776 18,14.5C 14.3799,18.8571 12.2133,23.8571 11.5,29.5C 12.2029,33.9565 13.0362,38.2898 14,42.5C 6.52272,36.5534 3.18939,28.8868 4,19.5C 9.58279,6.46646 19.0828,2.46646 32.5,7.5 Z"/></g>
<g><path style="opacity:1" fill="#606ba7" d="M 72.5,5.5 C 70.1667,5.5 67.8333,5.5 65.5,5.5C 65.5,14.1667 65.5,22.8333 65.5,31.5C 64.5067,22.6822 64.1734,13.6822 64.5,4.5C 67.3854,4.1936 70.0521,4.52693 72.5,5.5 Z"/></g>
<g><path style="opacity:1" fill="#455298" d="M 95.5,5.5 C 93.1667,5.5 90.8333,5.5 88.5,5.5C 88.8257,13.6841 88.4924,21.6841 87.5,29.5C 87.5,21.1667 87.5,12.8333 87.5,4.5C 90.3854,4.1936 93.0521,4.52693 95.5,5.5 Z"/></g>
<g><path style="opacity:1" fill="#606ca8" d="M 161.5,5.5 C 154.167,5.5 146.833,5.5 139.5,5.5C 139.5,17.5 139.5,29.5 139.5,41.5C 146.833,41.5 154.167,41.5 161.5,41.5C 154.018,42.492 146.352,42.8254 138.5,42.5C 138.5,29.8333 138.5,17.1667 138.5,4.5C 146.352,4.17464 154.018,4.50797 161.5,5.5 Z"/></g>
<g><path style="opacity:1" fill="#a4aacd" d="M 32.5,7.5 C 34.2303,8.02561 35.5637,9.02561 36.5,10.5C 36.5,10.8333 36.5,11.1667 36.5,11.5C 34.8869,10.3077 33.2202,9.30766 31.5,8.5C 32.1667,8.5 32.5,8.16667 32.5,7.5 Z"/></g>
<g><path style="opacity:1" fill="#f9f9fb" d="M 111.5,11.5 C 115.182,11.3347 118.848,11.5014 122.5,12C 125.592,16.1179 124.925,19.4512 120.5,22C 117.518,22.498 114.518,22.6646 111.5,22.5C 111.5,18.8333 111.5,15.1667 111.5,11.5 Z"/></g>
<g><path style="opacity:1" fill="#f7f8fa" d="M 146.5,11.5 C 150.846,11.3343 155.179,11.501 159.5,12C 162.371,14.8402 162.037,17.1735 158.5,19C 154.514,19.4988 150.514,19.6655 146.5,19.5C 146.5,16.8333 146.5,14.1667 146.5,11.5 Z"/></g>
<g><path style="opacity:1" fill="#333f8e" d="M 36.5,10.5 C 44.2549,15.6124 46.4215,22.279 43,30.5C 39.9123,33.0975 36.4123,33.9308 32.5,33C 29.5372,31.0394 26.8706,28.706 24.5,26C 27.0977,26.4217 29.7644,26.4217 32.5,26C 34.3237,25.34 35.657,24.1733 36.5,22.5C 39.1559,18.8756 39.1559,15.2089 36.5,11.5C 36.5,11.1667 36.5,10.8333 36.5,10.5 Z"/></g>
<g><path style="opacity:1" fill="#ebbb28" d="M 36.5,22.5 C 24.6594,20.01 20.3261,24.6766 23.5,36.5C 16.4989,32.1773 14.3322,26.1773 17,18.5C 21.3486,13.8053 26.1819,13.3053 31.5,17C 33.3734,18.7038 35.0401,20.5372 36.5,22.5 Z"/></g>
<g><path style="opacity:1" fill="#eaba23" d="M 28.5,40.5 C 28.5,40.1667 28.5,39.8333 28.5,39.5C 41.2856,37.543 47.9522,30.043 48.5,17C 48.4551,13.3127 47.9551,9.81273 47,6.5C 56.3853,13.0721 59.052,21.7387 55,32.5C 48.4171,42.5123 39.5837,45.1789 28.5,40.5 Z"/></g>
<g><path style="opacity:1" fill="#f5f6f9" d="M 146.5,25.5 C 150.846,25.3343 155.179,25.501 159.5,26C 163.482,29.0485 163.482,32.0485 159.5,35C 155.179,35.499 150.846,35.6657 146.5,35.5C 146.5,32.1667 146.5,28.8333 146.5,25.5 Z"/></g>
<g><path style="opacity:1" fill="#f5e09b" d="M 23.5,36.5 C 25.4341,37.1103 27.1007,38.1103 28.5,39.5C 28.5,39.8333 28.5,40.1667 28.5,40.5C 26.246,39.8763 24.5794,38.543 23.5,36.5 Z"/></g>
<g><path style="opacity:1" fill="#9f9dd5" d="M 168.5,39.5 C 169.833,39.5 171.167,39.5 172.5,39.5C 172.833,42.5 171.5,43.8333 168.5,43.5C 168.5,42.1667 168.5,40.8333 168.5,39.5 Z"/></g>
</svg>
